name Run_400 01_newCOP3_v24.mot
datacolumns 19
datarows 69
range 2.758333 2.829167
DataType=double
version=3
OpenSimVersion=4.3-2021-08-27-4bc7ad9
endheader
time	R_ground_force_vx	R_ground_force_vy	R_ground_force_vz	R_ground_force_px	R_ground_force_py	R_ground_force_pz	L_ground_force_vx	L_ground_force_vy	L_ground_force_vz	L_ground_force_px	L_ground_force_py	L_ground_force_pz	R_ground_torque_x	R_ground_torque_y	R_ground_torque_z	L_ground_torque_x	L_ground_torque_y	L_ground_torque_z
2.758333	0	0	0	0	0	0	0	0	0	0	0	0	0	0	0	0	0	0
2.759375	0	0	0	0	0	0	0	0	0	0	0	0	0	0	0	0	0	0
2.760417	0	0	0	0	0	0	0	0	0	0	0	0	0	0	0	0	0	0
2.761458	0	0	0	0	0	0	0	0	0	0	0	0	0	0	0	0	0	0
2.7625	0	0	0	0	0	0	0	0	0	0	0	0	0	0	0	0	0	0
2.763542	0	0	0	0	0	0	0	0	0	0	0	0	0	0	0	0	0	0
2.764583	0	0	0	0	0	0	0	0	0	0	0	0	0	0	0	0	0	0
2.765625	0	0	0	0	0	0	0	0	0	0	0	0	0	0	0	0	0	0
2.766667	0	0	0	0	0	0	0	0	0	0	0	0	0	0	0	0	0	0
2.767708	0	0	0	0	0	0	0	0	0	0	0	0	0	0	0	0	0	0
2.76875	0	0	0	0	0	0	0	0	0	0	0	0	0	0	0	0	0	0
2.769792	0	0	0	0	0	0	0	0	0	0	0	0	0	0	0	0	0	0
2.770833	0	0	0	0	0	0	0	0	0	0	0	0	0	0	0	0	0	0
2.771875	0	0	0	0	0	0	0	0	0	0	0	0	0	0	0	0	0	0
2.772917	0	0	0	0	0	0	0	0	0	0	0	0	0	0	0	0	0	0
2.773958	0	0	0	0	0	0	0	0	0	0	0	0	0	0	0	0	0	0
2.775	0	0	0	0	0	0	0	0	0	0	0	0	0	0	0	0	0	0
2.776042	0	0	0	0	0	0	0	0	0	0	0	0	0	0	0	0	0	0
2.777083	0	0	0	0	0	0	0	0	0	0	0	0	0	0	0	0	0	0
2.778125	0	0	0	0	0	0	0	0	0	0	0	0	0	0	0	0	0	0
2.779167	0	0	0	0	0	0	0	0	0	0	0	0	0	0	0	0	0	0
2.780208	0	0	0	0	0	0	0	0	0	0	0	0	0	0	0	0	0	0
2.78125	0	0	0	0	0	0	0	0	0	0	0	0	0	0	0	0	0	0
2.782292	0	0	0	0	0	0	0	0	0	0	0	0	0	0	0	0	0	0
2.783333	0	0	0	0	0	0	0	0	0	0	0	0	0	0	0	0	0	0
2.784375	0	0	0	0	0	0	0	0	0	0	0	0	0	0	0	0	0	0
2.785417	0	0	0	0	0	0	0	0	0	0	0	0	0	0	0	0	0	0
2.786458	0	0	0	0	0	0	0	0	0	0	0	0	0	0	0	0	0	0
2.7875	0	0	0	0	0	0	-1.038345	10.012986	0.68615	0	0	0	0	0	0	0	0	0
2.788542	0	0	0	0	0	0	-1.312892	10.562647	0.707415	0	0	0	0	0	0	0	0	0
2.789583	0	0	0	0	0	0	-1.598461	11.148059	0.69268	0	0	0	0	0	0	0	0	0
2.790625	0	0	0	0	0	0	-1.895801	11.780943	0.637856	0	0	0	0	0	0	0	0	0
2.791667	0	0	0	0	0	0	-2.206429	12.476055	0.539585	0	0	0	0	0	0	0	0	0
2.792708	0	0	0	0	0	0	-2.532715	13.251417	0.395298	0	0	0	0	0	0	0	0	0
2.79375	0	0	0	0	0	0	-2.877922	14.128532	0.203251	0	0	0	0	0	0	0	0	0
2.794792	0	0	0	0	0	0	-3.246193	15.132593	-0.037451	1.059861	0	-0.142627	0	0	0	0	-2.202076	0
2.795833	0	0	0	0	0	0	-3.642493	16.292679	-0.326864	1.064631	0	-0.157578	0	0	0	0	-2.118336	0
2.796875	0	0	0	0	0	0	-4.072492	17.641947	-0.664223	1.067954	0	-0.172648	0	0	0	0	-2.009307	0
2.797917	0	0	0	0	0	0	-4.542392	19.217806	-1.047985	1.069951	0	-0.187548	0	0	0	0	-1.877622	0
2.798958	0	0	0	0	0	0	-5.058714	21.062071	-1.475891	1.070797	0	-0.201986	0	0	0	0	-1.726776	0
2.8	0	0	0	0	0	0	-5.628036	23.221102	-1.945037	1.070704	0	-0.215694	0	0	0	0	-1.561071	0
2.801042	0	0	0	0	0	0	-6.256706	25.745907	-2.451964	1.069898	0	-0.228446	0	0	0	0	-1.385536	0
2.802083	0	0	0	0	0	0	-6.950534	28.692215	-2.992759	1.068601	0	-0.240078	0	0	0	0	-1.205832	0
2.803125	0	0	0	0	0	0	-7.714482	32.120495	-3.563157	1.067013	0	-0.250491	0	0	0	0	-1.028143	0
2.804167	0	0	0	0	0	0	-8.552372	36.095921	-4.158659	1.0653	0	-0.259647	0	0	0	0	-0.859049	0
2.805208	0	0	0	0	0	0	-9.466614999999999	40.688282	-4.774646	1.06359	0	-0.267564	0	0	0	0	-0.705393	0
2.80625	0	0	0	0	0	0	-10.458	45.971806	-5.406497	1.061974	0	-0.274303	0	0	0	0	-0.574136	0
2.807292	0	0	0	0	0	0	-11.52554	52.024879	-6.049695	1.060505	0	-0.279955	0	0	0	0	-0.472205	0
2.808333	0	0	0	0	0	0	-12.666396	58.929714	-6.69995	1.05921	0	-0.284629	0	0	0	0	-0.406346	0
2.809375	0	0	0	0	0	0	-13.875896	66.77185799999999	-7.353285	1.058092	0	-0.288442	0	0	0	0	-0.382965	0
2.810417	0	0	0	0	0	0	-15.147648	75.639595	-8.006144000000001	1.05714	0	-0.291508	0	0	0	0	-0.407977	0
2.811458	0	0	0	0	0	0	-16.473749	85.623238	-8.655462	1.05633	0	-0.293938	0	0	0	0	-0.486668	0
2.8125	0	0	0	0	0	0	-17.845093	96.814194	-9.298748	1.055637	0	-0.295831	0	0	0	0	-0.623548	0
2.813542	0	0	0	0	0	0	-19.251766	109.303925	-9.934132999999999	1.05503	0	-0.297277	0	0	0	0	-0.82223	0
2.814583	0	0	0	0	0	0	-20.683491	123.182709	-10.560423	1.054483	0	-0.298354	0	0	0	0	-1.085312	0
2.815625	0	0	0	0	0	0	-22.13015	138.538147	-11.17713	1.05397	0	-0.299127	0	0	0	0	-1.414281	0
2.816667	0	0	0	0	0	0	-23.582285	155.453506	-11.784486	1.053468	0	-0.299653	0	0	0	0	-1.809428	0
2.817708	0	0	0	0	0	0	-25.031633	174.005829	-12.383457	1.052959	0	-0.299977	0	0	0	0	-2.269783	0
2.81875	0	0	0	0	0	0	-26.471586	194.26384	-12.975733	1.052429	0	-0.300139	0	0	0	0	-2.793073	0
2.819792	0	0	0	0	0	0	-27.89761	216.285599	-13.563708	1.051866	0	-0.30017	0	0	0	0	-3.375697	0
2.820833	0	0	0	0	0	0	-29.307564	240.116058	-14.150461	1.051264	0	-0.300096	0	0	0	0	-4.012726	0
2.821875	0	0	0	0	0	0	-30.701933	265.784515	-14.739711	1.050618	0	-0.299936	0	0	0	0	-4.697922	0
2.822917	0	0	0	0	0	0	-32.083927	293.301941	-15.335778	1.049926	0	-0.299709	0	0	0	0	-5.423782	0
2.823958	0	0	0	0	0	0	-33.459496	322.658447	-15.94353	1.049188	0	-0.299428	0	0	0	0	-6.181609	0
2.825	0	0	0	0	0	0	-34.837215	353.820984	-16.568325	1.048407	0	-0.299103	0	0	0	0	-6.961592	0
2.826042	0	0	0	0	0	0	-36.228111	386.731079	-17.215952	1.047586	0	-0.298744	0	0	0	0	-7.752926	0
2.827083	0	0	0	0	0	0	-37.64537	421.303314	-17.892559	1.046728	0	-0.298358	0	0	0	0	-8.543934999999999	0
2.828125	0	0	0	0	0	0	-39.104031	457.424072	-18.604591	1.045837	0	-0.297951	0	0	0	0	-9.322229	0
2.829167	0	0	0	0	0	0	-40.620632	494.951202	-19.358707	1.044919	0	-0.297527	0	0	0	0	-10.074871	0
